<svg height="600" width="600" xmlns="http://www.w3.org/2000/svg"><path d="m167.17807 516.0589c-3.05539-3.88434-4.50334-12.34137-3.26239-19.05432 1.23491-6.68033 1.65524-7.52783 14.45682-29.15027 18.92203-31.96005 25.66162-49.12711 38.81021-98.85697.57641-2.1802-2.21907-4.90466-5.03256-4.90466-3.65711 0-6.45623 2.72943-8.20815 8.004-1.97621 5.94971-3.27127 7.16611-8.35586 7.84808-4.85137.65076-10.63041-1.66598-12.93688-5.18609-1.63113-2.48944-1.62593-3.12906.09496-11.60608 1.71939-8.46964 1.7258-9.22135.11458-13.44028-4.78808-12.53741-16.60824-14.0292-23.38904-2.9519-4.56087 7.45071-14.49713 20.24359-20.25112 26.07318-10.18667 10.32043-16.84523 10.64978-23.71032 1.17279-2.27062-3.13449-3.01053-5.2645-3.01053-8.66635 0-3.91968.4961-4.96634 3.78806-7.99167 4.84988-4.45703 11.69191-8.26019 22.47584-12.49307 14.68285-5.76331 21.1494-10.88331 24.80952-19.64325 2.72213-6.5149 1.45617-14.5142-2.64424-16.70865-6.024-3.22397-13.11483 2.18493-25.18861 19.21383-11.20136 15.79847-17.26164 19.67463-29.77285 19.04285-8.64889-.43677-12.75139-2.75308-17.47716-9.8678-4.30959-6.48819-5.55474-11.25348-5.12218-19.60333.31867-6.15131.85953-7.94046 3.59885-11.90469 3.83326-5.54746 10.78997-10.21988 18.52331-12.44117 3.15666-.90673 12.89187-2.01748 22.2233-2.53558 20.64028-1.14606 26.99386-2.40021 49.67796-9.80603 11.46846-3.74414 14.91005-6.31607 14.91005-11.1423 0-2.92572-4.17041-7.05133-7.90848-7.82352-2.74579-.5672-23.53111-2.59619-26.61166-2.59772-2.80544-.0014-7.78261-4.94806-8.84313-8.78892-1.52719-5.53107.71381-9.99481 5.69063-11.33493 5.29839-1.4267 9.21907-.18836 18.99571 5.99983 4.43868 2.80951 11.16419 6.05217 14.94553 7.20592 6.6024 2.01446 7.05328 2.02966 11.36584.38269 8.67643-3.31354 9.72177-9.1588 3.72974-20.85515-4.94383-9.65028-14.03923-19.36891-21.78713-23.28006-11.69632-5.90427-19.31584-15.28148-24.0819-29.63716-1.89736-5.71501-2.34198-9.20198-2.31836-18.18269.02586-9.84967.33271-11.76836 2.70179-16.89409 5.90699-12.78005 17.62275-13.13515 25.2228-.76448 2.43619 3.96534 3.17325 7.34478 5.94446 27.25499 3.62956 26.07708 5.01805 30.37133 13.05566 40.3773 8.32158 10.3595 15.64438 13.67866 20.17729 9.14575 2.97113-2.9711 3.39322-6.22798 1.59056-12.2716-.8911-2.98746-1.88139-8.6137-2.20064-12.50278-.50218-6.11653-.15753-8.38056 2.553-16.77194 5.08027-15.72774 4.08412-22.52753-5.56946-38.01603-5.61488-9.00875-6.15916-12.93261-2.35815-17.00102 4.73118-5.064 11.52455-7.06539 13.97204-4.11631.7771.93638 1.06047 7.58288.89363 20.96061-.27005 21.64334-.63325 20.00652 7.82157 35.24677 2.90764 5.24121 5.50348 16.39949 5.52894 23.76631.01 2.90645.68142 6.02634 1.56974 7.2946 2.8096 4.01128 12.39827 5.15143 16.44502 1.95538.73141-.57762 3.32184-4.12961 5.7565-7.89328 2.53253-3.91482 6.1727-7.99843 8.50693-9.54315 3.49707-2.31424 4.86685-2.63487 9.58502-2.24362 4.58618.38032 6.19025 1.0757 9.61166 4.16672 3.228 2.91632 4.93668 3.71019 7.98551 3.71019 8.07763 0 17.32852-7.67403 17.32852-14.3747 0-1.63038-1.36884-6.08317-3.04196-9.89514-4.4921-10.23491-4.74613-14.14243-1.54242-23.72723 5.52463-16.52839 10.47333-21.12058 22.76709-21.12681 10.22375-.00518 17.24276 4.87507 19.02417 13.22727 1.19177 5.5881.32553 9.73749-4.60486 22.05658-10.72131 26.78853-11.38467 35.09202-3.43817 43.03857 2.04379 2.04378 5.62167 4.2869 7.95093 4.98477 6.84216 2.04996 11.71566-.42338 21.01355-10.66487 9.29174-10.2346 14.07547-12.69108 19.94152-10.24009 3.09562 1.29342 3.85947 2.29527 5.20539 6.82748.86755 2.92139 1.57736 6.42642 1.57736 7.78899 0 10.74162-9.87357 21.39077-22.72836 24.51364-2.77793.67485-7.22635 2.31178-9.88541 3.6376-15.25082 7.6042-8.7854 23.45993 9.59494 23.5306 8.147.03134 15.19702-2.96462 24.02899-10.21125 16.07566-13.19009 35.88016-27.30349 43.77671-31.1969 12.67984-6.25181 29.98761-8.64808 42.16348-5.83755 12.56225 2.89972 17.42593 15.56531 10.95367 28.52478-3.38821 6.78416-4.38153 7.08488-16.4126 4.96826-19.29672-3.39484-36.134-1.87326-52.93545 4.78369-14.10492 5.58859-29.3002 13.82565-31.90805 17.29682-5.37277 7.15139-4.07477 14.69653 3.38699 19.68743 9.00583 6.02363 11.23804 8.61173 11.81082 13.69358.76093 6.75018-.98724 10.01742-7.98675 14.92727-9.23483 6.47785-11.8985 12.41428-8.50064 18.94492 2.10925 4.05396 5.51382 6.86328 11.71567 9.66733 8.1148 3.66897 13.70468 4.19122 22.91897 2.14123 11.02735-2.4534 18.68228-1.68841 26.23712 2.62186 12.35239 7.04742 18.89679 15.5983 23.12784 30.21857 1.46774 5.0719 1.89218 9.78402 1.86505 20.70807-.03964 15.96695-1.29233 20.91998-6.70285 26.50213-12.25879 12.64801-31.04132-4.71948-37.6105-34.77694-2.83408-12.96763-6.04205-20.00263-11.55829-25.34739-7.22061-6.99612-25.11359-14.18774-32.0582-12.88495-4.43329.83173-11.06595 7.49384-12.46103 12.51642-2.3507 8.46326-.75927 13.71115 7.56671 24.9516 15.84012 21.38492 20.41175 30.16022 21.443 41.15997.66134 7.05472-.55966 9.77597-5.65042 12.59217-5.16272 2.85608-9.43607 3.56677-14.02161 2.33203-5.42358-1.46048-8.50021-5.01697-8.9657-10.36423-2.4385-28.01248-4.16855-35.1579-10.22525-42.23379-6.32065-7.38422-16.64428-10.13431-24.97574-6.65323-6.46081 2.69955-7.59845 6.49237-6.1072 20.36065.53695 4.9936.40008 7.83231-.45472 9.42939-1.28549 2.40194-6.6614 5.14453-10.0841 5.14453-5.49289 0-13.70917-12.64325-18.20978-28.02155-2.74536-9.3808-5.40747-12.58648-10.45242-12.58648-5.72373 0-8.47486 2.37396-10.39148 8.96655-2.633 9.05752-1.58112 17.46362 4.40191 35.177 5.83396 17.27182 6.57227 19.05161 15.92417 38.38571 5.2587 10.87195 6.94861 15.46045 7.3081 19.84342.61469 7.49517-1.14383 12.62787-5.16714 15.08117-6.0921 3.71476-9.7898 2.07389-14.62222-6.4887-4.69519-8.31952-6.10306-14.81965-7.18418-33.1688-1.53644-26.07684-6.80746-48.92163-15.7572-68.29217-4.36417-9.44562-5.99634-11.32245-9.84662-11.32245-8.03082 0-14.17343 8.27011-14.25543 19.19287-.04437 5.91403.3721 7.29807 4.19418 13.93881 2.33402 4.05509 4.93588 9.41214 5.78211 11.9046 1.5545 4.57883 1.9143 15.97348.65112 20.62348-1.05835 3.89584-6.43552 6.05749-15.07265 6.05935-9.20676.00193-12.54111-1.59481-14.7243-7.05114-2.63475-6.58484-2.05785-12.87287 2.40016-26.16043 4.73131-14.10221 5.39638-23.80796 2.12505-31.01081-2.01142-4.42852-6.39483-8.50686-9.14333-8.50686-5.92513 0-15.02956 19.96988-21.76483 47.73944-3.59052 14.80408-4.81357 21.87469-9.04036 52.26541-2.81781 20.26025-4.42447 25.96701-9.13994 32.46481-6.61934 9.12128-21.93675 13.36066-26.64535 7.37476z" fill="#ff6100" fill-rule="evenodd" stroke="#ff6100" stroke-width=".999849"/></svg>