<svg enable-background="new 0 0 98.7 27" viewBox="0 0 98.7 27" xmlns="http://www.w3.org/2000/svg"><path d="m16.8 6.1c-.1.2-.3.4-.4.5-.2.1-.3.1-.6.1-.2 0-.5-.1-.7-.2-.3-.2-.6-.3-.9-.6s-.8-.4-1.3-.6-1.1-.2-1.7-.2-1.1.1-1.6.2c-.4.2-.8.4-1.1.7s-.5.6-.7.9-.2.8-.2 1.2c0 .5.2 1 .5 1.4s.7.7 1.2.9c.5.3 1.1.5 1.7.7s1.3.4 2 .6 1.3.5 2 .8c.6.3 1.2.7 1.7 1.2s.9 1 1.2 1.7.5 1.5.5 2.4c0 1-.2 2-.5 2.9s-.9 1.7-1.6 2.4-1.5 1.2-2.5 1.6-2.1.6-3.4.6c-.7 0-1.5-.1-2.2-.2-.8-.1-1.5-.3-2.2-.6s-1.3-.6-1.8-1c-.6-.4-1.1-.8-1.5-1.2l1.2-2.1.4-.4c.2-.1.3-.2.6-.2s.6.1.9.3.7.5 1.1.7.9.5 1.5.7 1.3.3 2.1.3c1.2 0 2.2-.3 2.8-.9.7-.6 1-1.4 1-2.5 0-.6-.2-1.1-.5-1.5s-.7-.7-1.2-1-1.1-.5-1.7-.7-1.3-.4-2-.6-1.3-.5-2-.8c-.6-.3-1.2-.7-1.7-1.2s-.9-.7-1.2-1.4-.5-1.6-.5-2.7c0-.8.2-1.7.5-2.5s.8-1.5 1.5-2.1 1.5-1.1 2.4-1.5 2-.6 3.2-.6c1.4 0 2.6.2 3.8.6s2.1 1 2.9 1.8z" fill="#21c2f8"/><g fill="#fff"><path d="m41.9 2.4v1.4h-11.9v9.2h9.9v1.3h-9.9v9.4h11.9v1.4h-13.5v-22.7h13.5z"/><path d="m55.1 14.8v10.2h-1.6v-22.6h5.8c2.6 0 4.6.5 5.9 1.5s1.9 2.5 1.9 4.4c0 .9-.1 1.7-.4 2.4s-.7 1.3-1.3 1.9c-.6.5-1.2 1-2 1.3s-1.7.6-2.7.7c.3.2.5.4.7.6l7.8 9.8h-1.4c-.2 0-.3 0-.4-.1s-.2-.2-.4-.3l-7.2-9.2c-.2-.2-.4-.4-.6-.5s-.5-.1-1-.1zm0-1.2h3.9c1 0 1.9-.1 2.7-.4.8-.2 1.5-.6 2-1s1-1 1.3-1.6.4-1.3.4-2.1c0-1.6-.5-2.8-1.6-3.6s-2.6-1.2-4.6-1.2h-4.1z"/><path d="m96 25.1h-1.3c-.1 0-.3 0-.4-.1s-.2-.2-.2-.3l-2.7-6.6h-11l-2.7 6.6c0 .1-.1.2-.2.3s-.2.1-.4.1h-1.2l9.3-22.6h1.6zm-15.1-8.3h10.1l-4.6-11.4c-.1-.2-.1-.4-.2-.6s-.1-.5-.2-.7c-.1.3-.1.5-.2.7s-.1.4-.2.6z"/></g></svg>